<mxfile host="app.diagrams.net" modified="2024-02-06T09:48:55.714Z" agent="Mozilla/5.0 (Windows NT 10.0; Win64; x64) AppleWebKit/537.36 (KHTML, like Gecko) Chrome/121.0.0.0 Safari/537.36" etag="6XYVLNSXx2TY-asSxl5P" version="23.1.1" type="device">
  <diagram name="Page-1" id="2YBvvXClWsGukQMizWep">
    <mxGraphModel dx="3713" dy="1860" grid="0" gridSize="10" guides="1" tooltips="1" connect="1" arrows="1" fold="1" page="1" pageScale="1" pageWidth="1100" pageHeight="1700" math="0" shadow="0">
      <root>
        <mxCell id="0" />
        <mxCell id="1" parent="0" />
        <mxCell id="aM9ryv3xv72pqoxQDRHE-8" value="return" style="html=1;verticalAlign=bottom;endArrow=open;dashed=1;endSize=8;edgeStyle=elbowEdgeStyle;elbow=vertical;curved=0;rounded=0;" parent="1" edge="1">
          <mxGeometry x="0.0027" relative="1" as="geometry">
            <mxPoint x="118" y="280" as="targetPoint" />
            <Array as="points">
              <mxPoint x="190" y="280" />
            </Array>
            <mxPoint x="261" y="280" as="sourcePoint" />
            <mxPoint as="offset" />
          </mxGeometry>
        </mxCell>
        <mxCell id="08ouj5gp9ZTIwRJ0SyTi-5" value="CLIENT" style="shape=umlActor;verticalLabelPosition=bottom;verticalAlign=top;html=1;outlineConnect=0;" parent="1" vertex="1">
          <mxGeometry x="96" y="24" width="30" height="60" as="geometry" />
        </mxCell>
        <mxCell id="08ouj5gp9ZTIwRJ0SyTi-7" value="" style="html=1;points=[];perimeter=orthogonalPerimeter;outlineConnect=0;targetShapes=umlLifeline;portConstraint=eastwest;newEdgeStyle={&quot;edgeStyle&quot;:&quot;elbowEdgeStyle&quot;,&quot;elbow&quot;:&quot;vertical&quot;,&quot;curved&quot;:0,&quot;rounded&quot;:0};" parent="1" vertex="1">
          <mxGeometry x="106" y="118" width="10" height="1493" as="geometry" />
        </mxCell>
        <mxCell id="08ouj5gp9ZTIwRJ0SyTi-8" value="" style="endArrow=classic;html=1;rounded=0;" parent="1" source="08ouj5gp9ZTIwRJ0SyTi-7" edge="1">
          <mxGeometry width="50" height="50" relative="1" as="geometry">
            <mxPoint x="345" y="193" as="sourcePoint" />
            <mxPoint x="262" y="143" as="targetPoint" />
          </mxGeometry>
        </mxCell>
        <mxCell id="08ouj5gp9ZTIwRJ0SyTi-9" value="Register" style="text;html=1;align=center;verticalAlign=middle;resizable=0;points=[];autosize=1;strokeColor=none;fillColor=none;" parent="1" vertex="1">
          <mxGeometry x="147" y="121" width="63" height="26" as="geometry" />
        </mxCell>
        <mxCell id="08ouj5gp9ZTIwRJ0SyTi-10" value="" style="endArrow=classic;html=1;rounded=0;exitX=1.02;exitY=0.169;exitDx=0;exitDy=0;exitPerimeter=0;" parent="1" edge="1">
          <mxGeometry width="50" height="50" relative="1" as="geometry">
            <mxPoint x="271.19999999999993" y="151.73000000000002" as="sourcePoint" />
            <mxPoint x="437" y="152" as="targetPoint" />
          </mxGeometry>
        </mxCell>
        <mxCell id="08ouj5gp9ZTIwRJ0SyTi-11" value="Enter details" style="text;html=1;align=center;verticalAlign=middle;resizable=0;points=[];autosize=1;strokeColor=none;fillColor=none;" parent="1" vertex="1">
          <mxGeometry x="306" y="130" width="85" height="26" as="geometry" />
        </mxCell>
        <mxCell id="08ouj5gp9ZTIwRJ0SyTi-12" value="" style="html=1;verticalAlign=bottom;endArrow=open;dashed=1;endSize=8;edgeStyle=elbowEdgeStyle;elbow=vertical;curved=0;rounded=0;" parent="1" edge="1">
          <mxGeometry x="0.0027" relative="1" as="geometry">
            <mxPoint x="271" y="240" as="targetPoint" />
            <Array as="points">
              <mxPoint x="330" y="240" />
            </Array>
            <mxPoint x="437" y="240" as="sourcePoint" />
            <mxPoint as="offset" />
          </mxGeometry>
        </mxCell>
        <mxCell id="08ouj5gp9ZTIwRJ0SyTi-13" value="Confirm" style="text;html=1;align=center;verticalAlign=middle;resizable=0;points=[];autosize=1;strokeColor=none;fillColor=none;" parent="1" vertex="1">
          <mxGeometry x="325" y="220" width="60" height="26" as="geometry" />
        </mxCell>
        <mxCell id="08ouj5gp9ZTIwRJ0SyTi-14" value="" style="html=1;points=[];perimeter=orthogonalPerimeter;outlineConnect=0;targetShapes=umlLifeline;portConstraint=eastwest;newEdgeStyle={&quot;edgeStyle&quot;:&quot;elbowEdgeStyle&quot;,&quot;elbow&quot;:&quot;vertical&quot;,&quot;curved&quot;:0,&quot;rounded&quot;:0};" parent="1" vertex="1">
          <mxGeometry x="262" y="134" width="10" height="151" as="geometry" />
        </mxCell>
        <mxCell id="08ouj5gp9ZTIwRJ0SyTi-15" value="UI" style="rounded=0;whiteSpace=wrap;html=1;" parent="1" vertex="1">
          <mxGeometry x="228" y="45" width="100" height="39" as="geometry" />
        </mxCell>
        <mxCell id="08ouj5gp9ZTIwRJ0SyTi-17" value="Database" style="rounded=0;whiteSpace=wrap;html=1;" parent="1" vertex="1">
          <mxGeometry x="388" y="45" width="100" height="39" as="geometry" />
        </mxCell>
        <mxCell id="08ouj5gp9ZTIwRJ0SyTi-18" value="" style="html=1;points=[];perimeter=orthogonalPerimeter;outlineConnect=0;targetShapes=umlLifeline;portConstraint=eastwest;newEdgeStyle={&quot;edgeStyle&quot;:&quot;elbowEdgeStyle&quot;,&quot;elbow&quot;:&quot;vertical&quot;,&quot;curved&quot;:0,&quot;rounded&quot;:0};" parent="1" vertex="1">
          <mxGeometry x="439" y="134" width="10" height="123" as="geometry" />
        </mxCell>
        <mxCell id="08ouj5gp9ZTIwRJ0SyTi-19" value="Bank" style="rounded=0;whiteSpace=wrap;html=1;" parent="1" vertex="1">
          <mxGeometry x="548" y="47" width="100" height="39" as="geometry" />
        </mxCell>
        <mxCell id="08ouj5gp9ZTIwRJ0SyTi-20" value="Redirect to home" style="html=1;verticalAlign=bottom;endArrow=open;dashed=1;endSize=8;edgeStyle=elbowEdgeStyle;elbow=vertical;curved=0;rounded=0;" parent="1" edge="1">
          <mxGeometry x="0.0027" relative="1" as="geometry">
            <mxPoint x="118" y="444" as="targetPoint" />
            <Array as="points">
              <mxPoint x="190" y="444" />
            </Array>
            <mxPoint x="261" y="444" as="sourcePoint" />
            <mxPoint as="offset" />
          </mxGeometry>
        </mxCell>
        <mxCell id="08ouj5gp9ZTIwRJ0SyTi-21" value="" style="endArrow=classic;html=1;rounded=0;" parent="1" edge="1">
          <mxGeometry width="50" height="50" relative="1" as="geometry">
            <mxPoint x="116" y="307" as="sourcePoint" />
            <mxPoint x="262" y="307" as="targetPoint" />
          </mxGeometry>
        </mxCell>
        <mxCell id="08ouj5gp9ZTIwRJ0SyTi-22" value="Login" style="text;html=1;align=center;verticalAlign=middle;resizable=0;points=[];autosize=1;strokeColor=none;fillColor=none;" parent="1" vertex="1">
          <mxGeometry x="155" y="285" width="47" height="26" as="geometry" />
        </mxCell>
        <mxCell id="08ouj5gp9ZTIwRJ0SyTi-23" value="" style="endArrow=classic;html=1;rounded=0;exitX=1.02;exitY=0.169;exitDx=0;exitDy=0;exitPerimeter=0;" parent="1" edge="1">
          <mxGeometry width="50" height="50" relative="1" as="geometry">
            <mxPoint x="271.19999999999993" y="315.73" as="sourcePoint" />
            <mxPoint x="437" y="316" as="targetPoint" />
          </mxGeometry>
        </mxCell>
        <mxCell id="08ouj5gp9ZTIwRJ0SyTi-24" value="Enter details" style="text;html=1;align=center;verticalAlign=middle;resizable=0;points=[];autosize=1;strokeColor=none;fillColor=none;" parent="1" vertex="1">
          <mxGeometry x="306" y="294" width="85" height="26" as="geometry" />
        </mxCell>
        <mxCell id="08ouj5gp9ZTIwRJ0SyTi-25" value="" style="html=1;verticalAlign=bottom;endArrow=open;dashed=1;endSize=8;edgeStyle=elbowEdgeStyle;elbow=vertical;curved=0;rounded=0;" parent="1" edge="1">
          <mxGeometry x="0.0027" relative="1" as="geometry">
            <mxPoint x="271" y="404" as="targetPoint" />
            <Array as="points">
              <mxPoint x="330" y="404" />
            </Array>
            <mxPoint x="437" y="404" as="sourcePoint" />
            <mxPoint as="offset" />
          </mxGeometry>
        </mxCell>
        <mxCell id="08ouj5gp9ZTIwRJ0SyTi-26" value="Login Success" style="text;html=1;align=center;verticalAlign=middle;resizable=0;points=[];autosize=1;strokeColor=none;fillColor=none;" parent="1" vertex="1">
          <mxGeometry x="308" y="384" width="96" height="26" as="geometry" />
        </mxCell>
        <mxCell id="08ouj5gp9ZTIwRJ0SyTi-27" value="" style="html=1;points=[];perimeter=orthogonalPerimeter;outlineConnect=0;targetShapes=umlLifeline;portConstraint=eastwest;newEdgeStyle={&quot;edgeStyle&quot;:&quot;elbowEdgeStyle&quot;,&quot;elbow&quot;:&quot;vertical&quot;,&quot;curved&quot;:0,&quot;rounded&quot;:0};" parent="1" vertex="1">
          <mxGeometry x="262" y="298" width="10" height="151" as="geometry" />
        </mxCell>
        <mxCell id="08ouj5gp9ZTIwRJ0SyTi-28" value="" style="html=1;points=[];perimeter=orthogonalPerimeter;outlineConnect=0;targetShapes=umlLifeline;portConstraint=eastwest;newEdgeStyle={&quot;edgeStyle&quot;:&quot;elbowEdgeStyle&quot;,&quot;elbow&quot;:&quot;vertical&quot;,&quot;curved&quot;:0,&quot;rounded&quot;:0};" parent="1" vertex="1">
          <mxGeometry x="439" y="298" width="10" height="123" as="geometry" />
        </mxCell>
        <mxCell id="08ouj5gp9ZTIwRJ0SyTi-29" value="View provider details" style="html=1;verticalAlign=bottom;endArrow=open;dashed=1;endSize=8;edgeStyle=elbowEdgeStyle;elbow=vertical;curved=0;rounded=0;" parent="1" edge="1">
          <mxGeometry x="0.007" relative="1" as="geometry">
            <mxPoint x="118" y="616" as="targetPoint" />
            <Array as="points">
              <mxPoint x="190" y="616" />
            </Array>
            <mxPoint x="261" y="616" as="sourcePoint" />
            <mxPoint as="offset" />
          </mxGeometry>
        </mxCell>
        <mxCell id="08ouj5gp9ZTIwRJ0SyTi-30" value="" style="endArrow=classic;html=1;rounded=0;" parent="1" edge="1">
          <mxGeometry width="50" height="50" relative="1" as="geometry">
            <mxPoint x="116" y="479" as="sourcePoint" />
            <mxPoint x="262" y="479" as="targetPoint" />
          </mxGeometry>
        </mxCell>
        <mxCell id="08ouj5gp9ZTIwRJ0SyTi-31" value="Search provider" style="text;html=1;align=center;verticalAlign=middle;resizable=0;points=[];autosize=1;strokeColor=none;fillColor=none;" parent="1" vertex="1">
          <mxGeometry x="127" y="457" width="103" height="26" as="geometry" />
        </mxCell>
        <mxCell id="08ouj5gp9ZTIwRJ0SyTi-32" value="" style="endArrow=classic;html=1;rounded=0;exitX=1.02;exitY=0.169;exitDx=0;exitDy=0;exitPerimeter=0;" parent="1" edge="1">
          <mxGeometry width="50" height="50" relative="1" as="geometry">
            <mxPoint x="271.19999999999993" y="487.73" as="sourcePoint" />
            <mxPoint x="437" y="488" as="targetPoint" />
          </mxGeometry>
        </mxCell>
        <mxCell id="08ouj5gp9ZTIwRJ0SyTi-33" value="Request provider list" style="text;html=1;align=center;verticalAlign=middle;resizable=0;points=[];autosize=1;strokeColor=none;fillColor=none;" parent="1" vertex="1">
          <mxGeometry x="285" y="464" width="127" height="26" as="geometry" />
        </mxCell>
        <mxCell id="08ouj5gp9ZTIwRJ0SyTi-34" value="" style="html=1;verticalAlign=bottom;endArrow=open;dashed=1;endSize=8;edgeStyle=elbowEdgeStyle;elbow=vertical;curved=0;rounded=0;" parent="1" edge="1">
          <mxGeometry x="0.0027" relative="1" as="geometry">
            <mxPoint x="271" y="576" as="targetPoint" />
            <Array as="points">
              <mxPoint x="330" y="576" />
            </Array>
            <mxPoint x="437" y="576" as="sourcePoint" />
            <mxPoint as="offset" />
          </mxGeometry>
        </mxCell>
        <mxCell id="08ouj5gp9ZTIwRJ0SyTi-35" value="Give provder list" style="text;html=1;align=center;verticalAlign=middle;resizable=0;points=[];autosize=1;strokeColor=none;fillColor=none;" parent="1" vertex="1">
          <mxGeometry x="304" y="556" width="105" height="26" as="geometry" />
        </mxCell>
        <mxCell id="08ouj5gp9ZTIwRJ0SyTi-36" value="" style="html=1;points=[];perimeter=orthogonalPerimeter;outlineConnect=0;targetShapes=umlLifeline;portConstraint=eastwest;newEdgeStyle={&quot;edgeStyle&quot;:&quot;elbowEdgeStyle&quot;,&quot;elbow&quot;:&quot;vertical&quot;,&quot;curved&quot;:0,&quot;rounded&quot;:0};" parent="1" vertex="1">
          <mxGeometry x="262" y="470" width="10" height="151" as="geometry" />
        </mxCell>
        <mxCell id="08ouj5gp9ZTIwRJ0SyTi-37" value="" style="html=1;points=[];perimeter=orthogonalPerimeter;outlineConnect=0;targetShapes=umlLifeline;portConstraint=eastwest;newEdgeStyle={&quot;edgeStyle&quot;:&quot;elbowEdgeStyle&quot;,&quot;elbow&quot;:&quot;vertical&quot;,&quot;curved&quot;:0,&quot;rounded&quot;:0};" parent="1" vertex="1">
          <mxGeometry x="439" y="470" width="10" height="123" as="geometry" />
        </mxCell>
        <mxCell id="08ouj5gp9ZTIwRJ0SyTi-47" value="successful booking" style="html=1;verticalAlign=bottom;endArrow=open;dashed=1;endSize=8;edgeStyle=elbowEdgeStyle;elbow=vertical;curved=0;rounded=0;" parent="1" edge="1">
          <mxGeometry x="0.0027" relative="1" as="geometry">
            <mxPoint x="118" y="786" as="targetPoint" />
            <Array as="points">
              <mxPoint x="190" y="786" />
            </Array>
            <mxPoint x="261" y="786" as="sourcePoint" />
            <mxPoint as="offset" />
          </mxGeometry>
        </mxCell>
        <mxCell id="08ouj5gp9ZTIwRJ0SyTi-48" value="" style="endArrow=classic;html=1;rounded=0;" parent="1" edge="1">
          <mxGeometry width="50" height="50" relative="1" as="geometry">
            <mxPoint x="116" y="649" as="sourcePoint" />
            <mxPoint x="262" y="649" as="targetPoint" />
          </mxGeometry>
        </mxCell>
        <mxCell id="08ouj5gp9ZTIwRJ0SyTi-49" value="Book service" style="text;html=1;align=center;verticalAlign=middle;resizable=0;points=[];autosize=1;strokeColor=none;fillColor=none;" parent="1" vertex="1">
          <mxGeometry x="143" y="625" width="87" height="26" as="geometry" />
        </mxCell>
        <mxCell id="08ouj5gp9ZTIwRJ0SyTi-50" value="" style="endArrow=classic;html=1;rounded=0;exitX=1.02;exitY=0.169;exitDx=0;exitDy=0;exitPerimeter=0;" parent="1" edge="1">
          <mxGeometry width="50" height="50" relative="1" as="geometry">
            <mxPoint x="271.19999999999993" y="657.73" as="sourcePoint" />
            <mxPoint x="437" y="658" as="targetPoint" />
          </mxGeometry>
        </mxCell>
        <mxCell id="08ouj5gp9ZTIwRJ0SyTi-51" value="give booking details" style="text;html=1;align=center;verticalAlign=middle;resizable=0;points=[];autosize=1;strokeColor=none;fillColor=none;" parent="1" vertex="1">
          <mxGeometry x="287" y="637" width="123" height="26" as="geometry" />
        </mxCell>
        <mxCell id="08ouj5gp9ZTIwRJ0SyTi-52" value="" style="html=1;verticalAlign=bottom;endArrow=open;dashed=1;endSize=8;edgeStyle=elbowEdgeStyle;elbow=vertical;curved=0;rounded=0;" parent="1" edge="1">
          <mxGeometry x="0.0027" relative="1" as="geometry">
            <mxPoint x="271" y="746" as="targetPoint" />
            <Array as="points">
              <mxPoint x="330" y="746" />
            </Array>
            <mxPoint x="437" y="746" as="sourcePoint" />
            <mxPoint as="offset" />
          </mxGeometry>
        </mxCell>
        <mxCell id="08ouj5gp9ZTIwRJ0SyTi-53" value="provider confirm booking" style="text;html=1;align=center;verticalAlign=middle;resizable=0;points=[];autosize=1;strokeColor=none;fillColor=none;" parent="1" vertex="1">
          <mxGeometry x="282" y="726" width="149" height="26" as="geometry" />
        </mxCell>
        <mxCell id="08ouj5gp9ZTIwRJ0SyTi-54" value="" style="html=1;points=[];perimeter=orthogonalPerimeter;outlineConnect=0;targetShapes=umlLifeline;portConstraint=eastwest;newEdgeStyle={&quot;edgeStyle&quot;:&quot;elbowEdgeStyle&quot;,&quot;elbow&quot;:&quot;vertical&quot;,&quot;curved&quot;:0,&quot;rounded&quot;:0};" parent="1" vertex="1">
          <mxGeometry x="262" y="640" width="10" height="151" as="geometry" />
        </mxCell>
        <mxCell id="08ouj5gp9ZTIwRJ0SyTi-55" value="" style="html=1;points=[];perimeter=orthogonalPerimeter;outlineConnect=0;targetShapes=umlLifeline;portConstraint=eastwest;newEdgeStyle={&quot;edgeStyle&quot;:&quot;elbowEdgeStyle&quot;,&quot;elbow&quot;:&quot;vertical&quot;,&quot;curved&quot;:0,&quot;rounded&quot;:0};" parent="1" vertex="1">
          <mxGeometry x="439" y="640" width="10" height="123" as="geometry" />
        </mxCell>
        <mxCell id="unTARabPfrPa24ZzhbON-1" value="" style="group" parent="1" vertex="1" connectable="0">
          <mxGeometry x="119" y="966" width="483" height="618" as="geometry" />
        </mxCell>
        <mxCell id="08ouj5gp9ZTIwRJ0SyTi-66" value="Download report" style="html=1;verticalAlign=bottom;endArrow=open;dashed=1;endSize=8;edgeStyle=elbowEdgeStyle;elbow=vertical;curved=0;rounded=0;" parent="unTARabPfrPa24ZzhbON-1" edge="1">
          <mxGeometry x="0.0027" relative="1" as="geometry">
            <mxPoint x="-3" y="144" as="targetPoint" />
            <Array as="points">
              <mxPoint x="75" y="144" />
            </Array>
            <mxPoint x="146" y="144" as="sourcePoint" />
            <mxPoint as="offset" />
          </mxGeometry>
        </mxCell>
        <mxCell id="08ouj5gp9ZTIwRJ0SyTi-67" value="" style="endArrow=classic;html=1;rounded=0;" parent="unTARabPfrPa24ZzhbON-1" edge="1">
          <mxGeometry width="50" height="50" relative="1" as="geometry">
            <mxPoint y="23" as="sourcePoint" />
            <mxPoint x="140" y="23" as="targetPoint" />
          </mxGeometry>
        </mxCell>
        <mxCell id="08ouj5gp9ZTIwRJ0SyTi-68" value="" style="endArrow=classic;html=1;rounded=0;exitX=1.02;exitY=0.169;exitDx=0;exitDy=0;exitPerimeter=0;" parent="unTARabPfrPa24ZzhbON-1" edge="1" target="08ouj5gp9ZTIwRJ0SyTi-73">
          <mxGeometry width="50" height="50" relative="1" as="geometry">
            <mxPoint x="155.99999999999994" y="59" as="sourcePoint" />
            <mxPoint x="317" y="59" as="targetPoint" />
          </mxGeometry>
        </mxCell>
        <mxCell id="08ouj5gp9ZTIwRJ0SyTi-69" value="&lt;font style=&quot;font-size: 10px;&quot;&gt;give request to download report&lt;/font&gt;" style="text;html=1;align=center;verticalAlign=middle;resizable=0;points=[];autosize=1;strokeColor=none;fillColor=none;" parent="unTARabPfrPa24ZzhbON-1" vertex="1">
          <mxGeometry x="153" y="36" width="158" height="26" as="geometry" />
        </mxCell>
        <mxCell id="08ouj5gp9ZTIwRJ0SyTi-70" value="" style="html=1;verticalAlign=bottom;endArrow=open;dashed=1;endSize=8;edgeStyle=elbowEdgeStyle;elbow=vertical;curved=0;rounded=0;" parent="unTARabPfrPa24ZzhbON-1" edge="1">
          <mxGeometry x="0.0027" relative="1" as="geometry">
            <mxPoint x="155" y="120" as="targetPoint" />
            <Array as="points">
              <mxPoint x="214" y="120" />
            </Array>
            <mxPoint x="321" y="120" as="sourcePoint" />
            <mxPoint as="offset" />
          </mxGeometry>
        </mxCell>
        <mxCell id="08ouj5gp9ZTIwRJ0SyTi-71" value="provide workreport" style="text;html=1;align=center;verticalAlign=middle;resizable=0;points=[];autosize=1;strokeColor=none;fillColor=none;" parent="unTARabPfrPa24ZzhbON-1" vertex="1">
          <mxGeometry x="182" y="100" width="117" height="26" as="geometry" />
        </mxCell>
        <mxCell id="08ouj5gp9ZTIwRJ0SyTi-72" value="" style="html=1;points=[];perimeter=orthogonalPerimeter;outlineConnect=0;targetShapes=umlLifeline;portConstraint=eastwest;newEdgeStyle={&quot;edgeStyle&quot;:&quot;elbowEdgeStyle&quot;,&quot;elbow&quot;:&quot;vertical&quot;,&quot;curved&quot;:0,&quot;rounded&quot;:0};" parent="unTARabPfrPa24ZzhbON-1" vertex="1">
          <mxGeometry x="143" y="14" width="10" height="353" as="geometry" />
        </mxCell>
        <mxCell id="08ouj5gp9ZTIwRJ0SyTi-73" value="" style="html=1;points=[];perimeter=orthogonalPerimeter;outlineConnect=0;targetShapes=umlLifeline;portConstraint=eastwest;newEdgeStyle={&quot;edgeStyle&quot;:&quot;elbowEdgeStyle&quot;,&quot;elbow&quot;:&quot;vertical&quot;,&quot;curved&quot;:0,&quot;rounded&quot;:0};" parent="unTARabPfrPa24ZzhbON-1" vertex="1">
          <mxGeometry x="321" y="32" width="10" height="317" as="geometry" />
        </mxCell>
        <mxCell id="08ouj5gp9ZTIwRJ0SyTi-74" value="view workreport" style="text;html=1;align=center;verticalAlign=middle;resizable=0;points=[];autosize=1;strokeColor=none;fillColor=none;" parent="unTARabPfrPa24ZzhbON-1" vertex="1">
          <mxGeometry x="16" width="102" height="26" as="geometry" />
        </mxCell>
        <mxCell id="08ouj5gp9ZTIwRJ0SyTi-89" value="view history" style="html=1;verticalAlign=bottom;endArrow=open;dashed=1;endSize=8;edgeStyle=elbowEdgeStyle;elbow=vertical;curved=0;rounded=0;" parent="unTARabPfrPa24ZzhbON-1" edge="1">
          <mxGeometry x="0.0027" relative="1" as="geometry">
            <mxPoint x="-1" y="599" as="targetPoint" />
            <Array as="points">
              <mxPoint x="71" y="599" />
            </Array>
            <mxPoint x="142" y="599" as="sourcePoint" />
            <mxPoint as="offset" />
          </mxGeometry>
        </mxCell>
        <mxCell id="08ouj5gp9ZTIwRJ0SyTi-90" value="" style="endArrow=classic;html=1;rounded=0;" parent="unTARabPfrPa24ZzhbON-1" edge="1">
          <mxGeometry width="50" height="50" relative="1" as="geometry">
            <mxPoint y="390" as="sourcePoint" />
            <mxPoint x="142" y="390" as="targetPoint" />
          </mxGeometry>
        </mxCell>
        <mxCell id="08ouj5gp9ZTIwRJ0SyTi-91" value="" style="endArrow=classic;html=1;rounded=0;exitX=1.02;exitY=0.169;exitDx=0;exitDy=0;exitPerimeter=0;" parent="unTARabPfrPa24ZzhbON-1" edge="1">
          <mxGeometry width="50" height="50" relative="1" as="geometry">
            <mxPoint x="155.19999999999993" y="398.73" as="sourcePoint" />
            <mxPoint x="321" y="399" as="targetPoint" />
          </mxGeometry>
        </mxCell>
        <mxCell id="08ouj5gp9ZTIwRJ0SyTi-92" value="&lt;font style=&quot;font-size: 10px;&quot;&gt;request service history&lt;/font&gt;" style="text;html=1;align=center;verticalAlign=middle;resizable=0;points=[];autosize=1;strokeColor=none;fillColor=none;" parent="unTARabPfrPa24ZzhbON-1" vertex="1">
          <mxGeometry x="174" y="377" width="118" height="26" as="geometry" />
        </mxCell>
        <mxCell id="08ouj5gp9ZTIwRJ0SyTi-93" value="" style="html=1;verticalAlign=bottom;endArrow=open;dashed=1;endSize=8;edgeStyle=elbowEdgeStyle;elbow=vertical;curved=0;rounded=0;" parent="unTARabPfrPa24ZzhbON-1" edge="1">
          <mxGeometry x="0.0027" relative="1" as="geometry">
            <mxPoint x="153" y="466" as="targetPoint" />
            <Array as="points">
              <mxPoint x="212" y="466" />
            </Array>
            <mxPoint x="319" y="466" as="sourcePoint" />
            <mxPoint as="offset" />
          </mxGeometry>
        </mxCell>
        <mxCell id="08ouj5gp9ZTIwRJ0SyTi-95" value="provider servicehistory" style="text;html=1;align=center;verticalAlign=middle;resizable=0;points=[];autosize=1;strokeColor=none;fillColor=none;" parent="unTARabPfrPa24ZzhbON-1" vertex="1">
          <mxGeometry x="171.5" y="433" width="138" height="26" as="geometry" />
        </mxCell>
        <mxCell id="08ouj5gp9ZTIwRJ0SyTi-96" value="" style="html=1;points=[];perimeter=orthogonalPerimeter;outlineConnect=0;targetShapes=umlLifeline;portConstraint=eastwest;newEdgeStyle={&quot;edgeStyle&quot;:&quot;elbowEdgeStyle&quot;,&quot;elbow&quot;:&quot;vertical&quot;,&quot;curved&quot;:0,&quot;rounded&quot;:0};" parent="unTARabPfrPa24ZzhbON-1" vertex="1">
          <mxGeometry x="143" y="381" width="10" height="237" as="geometry" />
        </mxCell>
        <mxCell id="08ouj5gp9ZTIwRJ0SyTi-97" value="" style="html=1;points=[];perimeter=orthogonalPerimeter;outlineConnect=0;targetShapes=umlLifeline;portConstraint=eastwest;newEdgeStyle={&quot;edgeStyle&quot;:&quot;elbowEdgeStyle&quot;,&quot;elbow&quot;:&quot;vertical&quot;,&quot;curved&quot;:0,&quot;rounded&quot;:0};" parent="unTARabPfrPa24ZzhbON-1" vertex="1">
          <mxGeometry x="321" y="388" width="10" height="203" as="geometry" />
        </mxCell>
        <mxCell id="08ouj5gp9ZTIwRJ0SyTi-98" value="View service history" style="text;html=1;align=center;verticalAlign=middle;resizable=0;points=[];autosize=1;strokeColor=none;fillColor=none;" parent="unTARabPfrPa24ZzhbON-1" vertex="1">
          <mxGeometry x="5" y="367" width="124" height="26" as="geometry" />
        </mxCell>
        <mxCell id="08ouj5gp9ZTIwRJ0SyTi-99" value="" style="endArrow=classic;html=1;rounded=0;exitX=1.02;exitY=0.169;exitDx=0;exitDy=0;exitPerimeter=0;" parent="unTARabPfrPa24ZzhbON-1" edge="1">
          <mxGeometry width="50" height="50" relative="1" as="geometry">
            <mxPoint x="152.99999999999991" y="511" as="sourcePoint" />
            <mxPoint x="318.79999999999995" y="511.27" as="targetPoint" />
          </mxGeometry>
        </mxCell>
        <mxCell id="08ouj5gp9ZTIwRJ0SyTi-100" value="&lt;font style=&quot;font-size: 10px;&quot;&gt;Give rating and review&lt;/font&gt;" style="text;html=1;align=center;verticalAlign=middle;resizable=0;points=[];autosize=1;strokeColor=none;fillColor=none;" parent="unTARabPfrPa24ZzhbON-1" vertex="1">
          <mxGeometry x="181" y="485" width="118" height="26" as="geometry" />
        </mxCell>
        <mxCell id="08ouj5gp9ZTIwRJ0SyTi-101" value="" style="html=1;verticalAlign=bottom;endArrow=open;dashed=1;endSize=8;edgeStyle=elbowEdgeStyle;elbow=vertical;curved=0;rounded=0;" parent="unTARabPfrPa24ZzhbON-1" edge="1">
          <mxGeometry x="0.0027" relative="1" as="geometry">
            <mxPoint x="153" y="568" as="targetPoint" />
            <Array as="points">
              <mxPoint x="212" y="568" />
            </Array>
            <mxPoint x="319" y="568" as="sourcePoint" />
            <mxPoint as="offset" />
          </mxGeometry>
        </mxCell>
        <mxCell id="08ouj5gp9ZTIwRJ0SyTi-102" value="Sucessful" style="text;html=1;align=center;verticalAlign=middle;resizable=0;points=[];autosize=1;strokeColor=none;fillColor=none;" parent="unTARabPfrPa24ZzhbON-1" vertex="1">
          <mxGeometry x="205" y="546" width="70" height="26" as="geometry" />
        </mxCell>
        <mxCell id="08ouj5gp9ZTIwRJ0SyTi-104" value="" style="endArrow=classic;html=1;rounded=0;exitX=1.02;exitY=0.169;exitDx=0;exitDy=0;exitPerimeter=0;" parent="unTARabPfrPa24ZzhbON-1" edge="1">
          <mxGeometry width="50" height="50" relative="1" as="geometry">
            <mxPoint x="157.59999999999997" y="197" as="sourcePoint" />
            <mxPoint x="323.40000000000003" y="197.26999999999998" as="targetPoint" />
          </mxGeometry>
        </mxCell>
        <mxCell id="08ouj5gp9ZTIwRJ0SyTi-105" value="View payment detais" style="text;html=1;align=center;verticalAlign=middle;resizable=0;points=[];autosize=1;strokeColor=none;fillColor=none;" parent="unTARabPfrPa24ZzhbON-1" vertex="1">
          <mxGeometry x="175.5" y="167" width="129" height="26" as="geometry" />
        </mxCell>
        <mxCell id="08ouj5gp9ZTIwRJ0SyTi-106" value="" style="html=1;points=[];perimeter=orthogonalPerimeter;outlineConnect=0;targetShapes=umlLifeline;portConstraint=eastwest;newEdgeStyle={&quot;edgeStyle&quot;:&quot;elbowEdgeStyle&quot;,&quot;elbow&quot;:&quot;vertical&quot;,&quot;curved&quot;:0,&quot;rounded&quot;:0};" parent="unTARabPfrPa24ZzhbON-1" vertex="1">
          <mxGeometry x="473" y="224" width="10" height="71" as="geometry" />
        </mxCell>
        <mxCell id="08ouj5gp9ZTIwRJ0SyTi-107" value="" style="endArrow=classic;html=1;rounded=0;exitX=1.02;exitY=0.169;exitDx=0;exitDy=0;exitPerimeter=0;" parent="unTARabPfrPa24ZzhbON-1" edge="1">
          <mxGeometry width="50" height="50" relative="1" as="geometry">
            <mxPoint x="333" y="247" as="sourcePoint" />
            <mxPoint x="472" y="248" as="targetPoint" />
          </mxGeometry>
        </mxCell>
        <mxCell id="08ouj5gp9ZTIwRJ0SyTi-108" value="Payment" style="text;html=1;align=center;verticalAlign=middle;resizable=0;points=[];autosize=1;strokeColor=none;fillColor=none;" parent="unTARabPfrPa24ZzhbON-1" vertex="1">
          <mxGeometry x="368" y="224" width="65" height="26" as="geometry" />
        </mxCell>
        <mxCell id="08ouj5gp9ZTIwRJ0SyTi-109" value="" style="html=1;verticalAlign=bottom;endArrow=open;dashed=1;endSize=8;edgeStyle=elbowEdgeStyle;elbow=vertical;curved=0;rounded=0;" parent="unTARabPfrPa24ZzhbON-1" target="08ouj5gp9ZTIwRJ0SyTi-73" edge="1">
          <mxGeometry x="0.0027" relative="1" as="geometry">
            <mxPoint x="307" y="277" as="targetPoint" />
            <Array as="points">
              <mxPoint x="366" y="277" />
            </Array>
            <mxPoint x="473" y="277" as="sourcePoint" />
            <mxPoint as="offset" />
          </mxGeometry>
        </mxCell>
        <mxCell id="08ouj5gp9ZTIwRJ0SyTi-112" value="Success" style="text;html=1;align=center;verticalAlign=middle;resizable=0;points=[];autosize=1;strokeColor=none;fillColor=none;" parent="unTARabPfrPa24ZzhbON-1" vertex="1">
          <mxGeometry x="370" y="257" width="63" height="26" as="geometry" />
        </mxCell>
        <mxCell id="08ouj5gp9ZTIwRJ0SyTi-113" value="" style="html=1;verticalAlign=bottom;endArrow=open;dashed=1;endSize=8;edgeStyle=elbowEdgeStyle;elbow=vertical;curved=0;rounded=0;" parent="unTARabPfrPa24ZzhbON-1" edge="1">
          <mxGeometry x="0.0027" relative="1" as="geometry">
            <mxPoint x="153" y="308.86" as="targetPoint" />
            <Array as="points">
              <mxPoint x="212" y="308.86" />
            </Array>
            <mxPoint x="319" y="308.86" as="sourcePoint" />
            <mxPoint as="offset" />
          </mxGeometry>
        </mxCell>
        <mxCell id="08ouj5gp9ZTIwRJ0SyTi-114" value="Service completion" style="text;html=1;align=center;verticalAlign=middle;resizable=0;points=[];autosize=1;strokeColor=none;fillColor=none;" parent="unTARabPfrPa24ZzhbON-1" vertex="1">
          <mxGeometry x="180" y="287" width="119" height="26" as="geometry" />
        </mxCell>
        <mxCell id="08ouj5gp9ZTIwRJ0SyTi-116" value="return to home" style="html=1;verticalAlign=bottom;endArrow=open;dashed=1;endSize=8;edgeStyle=elbowEdgeStyle;elbow=vertical;curved=0;rounded=0;" parent="unTARabPfrPa24ZzhbON-1" edge="1">
          <mxGeometry x="0.0027" relative="1" as="geometry">
            <mxPoint x="-4" y="332" as="targetPoint" />
            <Array as="points">
              <mxPoint x="74" y="332" />
            </Array>
            <mxPoint x="143" y="332" as="sourcePoint" />
            <mxPoint as="offset" />
          </mxGeometry>
        </mxCell>
        <mxCell id="3NO_JmdAgY7JgIi-Wcf4-8" value="" style="endArrow=none;dashed=1;html=1;rounded=0;" edge="1" parent="unTARabPfrPa24ZzhbON-1">
          <mxGeometry width="50" height="50" relative="1" as="geometry">
            <mxPoint x="147.94" y="14" as="sourcePoint" />
            <mxPoint x="148" as="targetPoint" />
          </mxGeometry>
        </mxCell>
        <mxCell id="3NO_JmdAgY7JgIi-Wcf4-11" value="" style="endArrow=none;dashed=1;html=1;rounded=0;" edge="1" parent="unTARabPfrPa24ZzhbON-1">
          <mxGeometry width="50" height="50" relative="1" as="geometry">
            <mxPoint x="147.9" y="380" as="sourcePoint" />
            <mxPoint x="147.9" y="367" as="targetPoint" />
          </mxGeometry>
        </mxCell>
        <mxCell id="3NO_JmdAgY7JgIi-Wcf4-17" value="" style="endArrow=none;dashed=1;html=1;rounded=0;" edge="1" parent="unTARabPfrPa24ZzhbON-1" source="08ouj5gp9ZTIwRJ0SyTi-97">
          <mxGeometry width="50" height="50" relative="1" as="geometry">
            <mxPoint x="276" y="398" as="sourcePoint" />
            <mxPoint x="326" y="348" as="targetPoint" />
          </mxGeometry>
        </mxCell>
        <mxCell id="3NO_JmdAgY7JgIi-Wcf4-22" value="" style="endArrow=none;dashed=1;html=1;rounded=0;" edge="1" parent="unTARabPfrPa24ZzhbON-1">
          <mxGeometry width="50" height="50" relative="1" as="geometry">
            <mxPoint x="326" y="646" as="sourcePoint" />
            <mxPoint x="325.84000000000003" y="591" as="targetPoint" />
          </mxGeometry>
        </mxCell>
        <mxCell id="3NO_JmdAgY7JgIi-Wcf4-24" value="" style="endArrow=none;dashed=1;html=1;rounded=0;" edge="1" parent="unTARabPfrPa24ZzhbON-1">
          <mxGeometry width="50" height="50" relative="1" as="geometry">
            <mxPoint x="477.77" y="646" as="sourcePoint" />
            <mxPoint x="477.77" y="295" as="targetPoint" />
          </mxGeometry>
        </mxCell>
        <mxCell id="unTARabPfrPa24ZzhbON-2" value="successful rescheduled" style="html=1;verticalAlign=bottom;endArrow=open;dashed=1;endSize=8;edgeStyle=elbowEdgeStyle;elbow=vertical;curved=0;rounded=0;" parent="1" edge="1">
          <mxGeometry x="0.0027" relative="1" as="geometry">
            <mxPoint x="118" y="951" as="targetPoint" />
            <Array as="points">
              <mxPoint x="190" y="951" />
            </Array>
            <mxPoint x="261" y="951" as="sourcePoint" />
            <mxPoint as="offset" />
          </mxGeometry>
        </mxCell>
        <mxCell id="unTARabPfrPa24ZzhbON-3" value="" style="endArrow=classic;html=1;rounded=0;" parent="1" edge="1">
          <mxGeometry width="50" height="50" relative="1" as="geometry">
            <mxPoint x="116" y="814" as="sourcePoint" />
            <mxPoint x="262" y="814" as="targetPoint" />
          </mxGeometry>
        </mxCell>
        <mxCell id="unTARabPfrPa24ZzhbON-4" value="" style="endArrow=classic;html=1;rounded=0;exitX=1.02;exitY=0.169;exitDx=0;exitDy=0;exitPerimeter=0;" parent="1" edge="1">
          <mxGeometry width="50" height="50" relative="1" as="geometry">
            <mxPoint x="271.19999999999993" y="822.73" as="sourcePoint" />
            <mxPoint x="437" y="823" as="targetPoint" />
          </mxGeometry>
        </mxCell>
        <mxCell id="unTARabPfrPa24ZzhbON-5" value="give booking details" style="text;html=1;align=center;verticalAlign=middle;resizable=0;points=[];autosize=1;strokeColor=none;fillColor=none;" parent="1" vertex="1">
          <mxGeometry x="287" y="801" width="123" height="26" as="geometry" />
        </mxCell>
        <mxCell id="unTARabPfrPa24ZzhbON-6" value="" style="html=1;verticalAlign=bottom;endArrow=open;dashed=1;endSize=8;edgeStyle=elbowEdgeStyle;elbow=vertical;curved=0;rounded=0;" parent="1" edge="1">
          <mxGeometry x="0.0027" relative="1" as="geometry">
            <mxPoint x="271" y="911" as="targetPoint" />
            <Array as="points">
              <mxPoint x="330" y="911" />
            </Array>
            <mxPoint x="437" y="911" as="sourcePoint" />
            <mxPoint as="offset" />
          </mxGeometry>
        </mxCell>
        <mxCell id="unTARabPfrPa24ZzhbON-7" value="provider confirms booking" style="text;html=1;align=center;verticalAlign=middle;resizable=0;points=[];autosize=1;strokeColor=none;fillColor=none;" parent="1" vertex="1">
          <mxGeometry x="277" y="891" width="160" height="26" as="geometry" />
        </mxCell>
        <mxCell id="unTARabPfrPa24ZzhbON-8" value="" style="html=1;points=[];perimeter=orthogonalPerimeter;outlineConnect=0;targetShapes=umlLifeline;portConstraint=eastwest;newEdgeStyle={&quot;edgeStyle&quot;:&quot;elbowEdgeStyle&quot;,&quot;elbow&quot;:&quot;vertical&quot;,&quot;curved&quot;:0,&quot;rounded&quot;:0};" parent="1" vertex="1">
          <mxGeometry x="262" y="805" width="10" height="151" as="geometry" />
        </mxCell>
        <mxCell id="unTARabPfrPa24ZzhbON-9" value="" style="html=1;points=[];perimeter=orthogonalPerimeter;outlineConnect=0;targetShapes=umlLifeline;portConstraint=eastwest;newEdgeStyle={&quot;edgeStyle&quot;:&quot;elbowEdgeStyle&quot;,&quot;elbow&quot;:&quot;vertical&quot;,&quot;curved&quot;:0,&quot;rounded&quot;:0};" parent="1" vertex="1">
          <mxGeometry x="439" y="805" width="10" height="123" as="geometry" />
        </mxCell>
        <mxCell id="unTARabPfrPa24ZzhbON-10" value="&lt;span style=&quot;color: rgb(0, 0, 0); font-family: Helvetica; font-size: 12px; font-style: normal; font-variant-ligatures: normal; font-variant-caps: normal; font-weight: 400; letter-spacing: normal; orphans: 2; text-align: center; text-indent: 0px; text-transform: none; widows: 2; word-spacing: 0px; -webkit-text-stroke-width: 0px; background-color: rgb(251, 251, 251); text-decoration-thickness: initial; text-decoration-style: initial; text-decoration-color: initial; float: none; display: inline !important;&quot;&gt;Reschedule service&lt;/span&gt;" style="text;whiteSpace=wrap;html=1;" parent="1" vertex="1">
          <mxGeometry x="133" y="791" width="119.6" height="26" as="geometry" />
        </mxCell>
        <mxCell id="3NO_JmdAgY7JgIi-Wcf4-1" value="" style="endArrow=none;dashed=1;html=1;rounded=0;entryX=0.404;entryY=1.001;entryDx=0;entryDy=0;entryPerimeter=0;" edge="1" parent="1">
          <mxGeometry width="50" height="50" relative="1" as="geometry">
            <mxPoint x="266.85999999999996" y="134" as="sourcePoint" />
            <mxPoint x="266.85999999999996" y="84.03899999999999" as="targetPoint" />
          </mxGeometry>
        </mxCell>
        <mxCell id="3NO_JmdAgY7JgIi-Wcf4-2" value="" style="endArrow=none;dashed=1;html=1;rounded=0;entryX=0.404;entryY=1.001;entryDx=0;entryDy=0;entryPerimeter=0;" edge="1" parent="1">
          <mxGeometry width="50" height="50" relative="1" as="geometry">
            <mxPoint x="443.85999999999996" y="134" as="sourcePoint" />
            <mxPoint x="443.85999999999996" y="84.03899999999999" as="targetPoint" />
          </mxGeometry>
        </mxCell>
        <mxCell id="3NO_JmdAgY7JgIi-Wcf4-3" value="" style="endArrow=none;dashed=1;html=1;rounded=0;" edge="1" parent="1" source="08ouj5gp9ZTIwRJ0SyTi-27" target="08ouj5gp9ZTIwRJ0SyTi-14">
          <mxGeometry width="50" height="50" relative="1" as="geometry">
            <mxPoint x="303.99999999999994" y="302.96000000000004" as="sourcePoint" />
            <mxPoint x="303.99999999999994" y="252.999" as="targetPoint" />
          </mxGeometry>
        </mxCell>
        <mxCell id="3NO_JmdAgY7JgIi-Wcf4-5" value="" style="endArrow=none;dashed=1;html=1;rounded=0;exitX=0.494;exitY=0;exitDx=0;exitDy=0;exitPerimeter=0;" edge="1" parent="1" source="08ouj5gp9ZTIwRJ0SyTi-36">
          <mxGeometry width="50" height="50" relative="1" as="geometry">
            <mxPoint x="266.94" y="462" as="sourcePoint" />
            <mxPoint x="266.94" y="449" as="targetPoint" />
          </mxGeometry>
        </mxCell>
        <mxCell id="3NO_JmdAgY7JgIi-Wcf4-6" value="" style="endArrow=none;dashed=1;html=1;rounded=0;" edge="1" parent="1" target="08ouj5gp9ZTIwRJ0SyTi-36">
          <mxGeometry width="50" height="50" relative="1" as="geometry">
            <mxPoint x="267" y="639" as="sourcePoint" />
            <mxPoint x="266.95" y="621" as="targetPoint" />
          </mxGeometry>
        </mxCell>
        <mxCell id="3NO_JmdAgY7JgIi-Wcf4-7" value="" style="endArrow=none;dashed=1;html=1;rounded=0;" edge="1" parent="1">
          <mxGeometry width="50" height="50" relative="1" as="geometry">
            <mxPoint x="266.94" y="805" as="sourcePoint" />
            <mxPoint x="267" y="791" as="targetPoint" />
          </mxGeometry>
        </mxCell>
        <mxCell id="3NO_JmdAgY7JgIi-Wcf4-12" value="" style="endArrow=none;dashed=1;html=1;rounded=0;" edge="1" parent="1">
          <mxGeometry width="50" height="50" relative="1" as="geometry">
            <mxPoint x="443.71" y="298" as="sourcePoint" />
            <mxPoint x="444" y="257" as="targetPoint" />
          </mxGeometry>
        </mxCell>
        <mxCell id="3NO_JmdAgY7JgIi-Wcf4-13" value="" style="endArrow=none;dashed=1;html=1;rounded=0;" edge="1" parent="1">
          <mxGeometry width="50" height="50" relative="1" as="geometry">
            <mxPoint x="444" y="469" as="sourcePoint" />
            <mxPoint x="444" y="421" as="targetPoint" />
          </mxGeometry>
        </mxCell>
        <mxCell id="3NO_JmdAgY7JgIi-Wcf4-14" value="" style="endArrow=none;dashed=1;html=1;rounded=0;" edge="1" parent="1">
          <mxGeometry width="50" height="50" relative="1" as="geometry">
            <mxPoint x="443.89" y="640" as="sourcePoint" />
            <mxPoint x="443.89" y="592" as="targetPoint" />
          </mxGeometry>
        </mxCell>
        <mxCell id="3NO_JmdAgY7JgIi-Wcf4-15" value="" style="endArrow=none;dashed=1;html=1;rounded=0;" edge="1" parent="1">
          <mxGeometry width="50" height="50" relative="1" as="geometry">
            <mxPoint x="444" y="804" as="sourcePoint" />
            <mxPoint x="443.89" y="763" as="targetPoint" />
          </mxGeometry>
        </mxCell>
        <mxCell id="3NO_JmdAgY7JgIi-Wcf4-16" value="" style="endArrow=none;dashed=1;html=1;rounded=0;" edge="1" parent="1">
          <mxGeometry width="50" height="50" relative="1" as="geometry">
            <mxPoint x="444" y="987" as="sourcePoint" />
            <mxPoint x="443.8" y="928" as="targetPoint" />
          </mxGeometry>
        </mxCell>
        <mxCell id="3NO_JmdAgY7JgIi-Wcf4-20" value="" style="endArrow=none;dashed=1;html=1;rounded=0;entryX=0.5;entryY=1;entryDx=0;entryDy=0;" edge="1" parent="1" source="08ouj5gp9ZTIwRJ0SyTi-106" target="08ouj5gp9ZTIwRJ0SyTi-19">
          <mxGeometry width="50" height="50" relative="1" as="geometry">
            <mxPoint x="38" y="571" as="sourcePoint" />
            <mxPoint x="88" y="521" as="targetPoint" />
          </mxGeometry>
        </mxCell>
        <mxCell id="3NO_JmdAgY7JgIi-Wcf4-21" value="" style="endArrow=none;dashed=1;html=1;rounded=0;" edge="1" parent="1" target="08ouj5gp9ZTIwRJ0SyTi-96">
          <mxGeometry width="50" height="50" relative="1" as="geometry">
            <mxPoint x="267" y="1612" as="sourcePoint" />
            <mxPoint x="269" y="1584" as="targetPoint" />
          </mxGeometry>
        </mxCell>
      </root>
    </mxGraphModel>
  </diagram>
</mxfile>
